# Blender 4.0.0
# www.blender.org
mtllib plastic.mtl
o plastic.002
v 20.000000 -5.825889 -2.789414
v 20.000000 -2.189525 -2.789414
v 20.000000 23.265020 -2.789413
v 20.000000 26.901382 -2.789413
v -14.545455 -5.825889 -2.789414
v -14.545455 -2.189525 -2.789414
v -14.545455 23.265020 -2.789413
v -14.545455 26.901382 -2.789413
v 16.363636 -0.689526 -1.289414
v 14.863636 -2.189525 -1.289414
v 17.863636 -3.689525 -2.789414
v 16.141071 -1.425763 -1.289414
v 16.584028 -1.642901 -2.022398
v 16.362309 -1.938908 -1.999733
v 15.817013 -2.409918 -2.022397
v 15.599873 -1.966960 -1.289414
v 16.113018 -2.188196 -1.999733
v 17.130653 -2.736149 -2.569021
v 16.910259 -2.956541 -2.569021
v 16.615425 -2.441313 -2.402662
v 16.363636 21.765020 -1.289413
v 17.863636 24.765018 -2.789413
v 14.863636 23.265020 -1.289413
v 16.584030 22.718395 -2.022396
v 16.141071 22.501259 -1.289413
v 16.362309 23.014404 -1.999732
v 16.910259 24.032036 -2.569020
v 17.130651 23.811644 -2.569020
v 16.615425 23.516808 -2.402661
v 15.599875 23.042454 -1.289413
v 15.817012 23.485413 -2.022396
v 16.113018 23.263693 -1.999732
v -9.409090 -2.189525 -1.289414
v -10.909090 -0.689526 -1.289414
v -12.409090 -3.689525 -2.789414
v -10.145326 -1.966958 -1.289414
v -10.362465 -2.409917 -2.022398
v -10.658473 -2.188196 -1.999733
v -11.129484 -1.642904 -2.022397
v -10.686522 -1.425762 -1.289414
v -10.907763 -1.938909 -1.999733
v -11.455712 -2.956541 -2.569021
v -11.676107 -2.736149 -2.569021
v -11.160878 -2.441312 -2.402662
v -9.409090 23.265020 -1.289413
v -12.409090 24.765018 -2.789413
v -10.909090 21.765020 -1.289413
v -10.362465 23.485413 -2.022396
v -10.145326 23.042454 -1.289413
v -10.658474 23.263693 -1.999732
v -11.676107 23.811646 -2.569020
v -11.455712 24.032036 -2.569020
v -11.160877 23.516808 -2.402661
v -10.686522 22.501259 -1.289413
v -11.129484 22.718395 -2.022396
v -10.907763 23.014404 -1.999732
v 14.863636 23.265020 1.580393
v 14.863636 21.765020 3.080393
v 16.363636 21.765020 1.580393
v 14.863636 23.064625 2.329409
v 15.612652 23.064625 1.580393
v 15.580954 22.869968 2.297711
v 15.612652 21.765020 2.879999
v 14.863636 22.514036 2.879999
v 15.580954 22.482338 2.685342
v 16.163242 22.514036 1.580393
v 16.163242 21.765020 2.329409
v 15.968585 22.482338 2.297711
v 14.863636 -2.189525 1.580392
v 16.363636 -0.689526 1.580392
v 14.863636 -0.689526 3.080392
v 15.612652 -1.989131 1.580391
v 14.863636 -1.989131 2.329408
v 15.580954 -1.794474 2.297709
v 16.163242 -0.689526 2.329408
v 16.163242 -1.438542 1.580391
v 15.968585 -1.406843 2.297709
v 14.863636 -1.438542 2.879997
v 15.612652 -0.689526 2.879997
v 15.580954 -1.406843 2.685340
v -10.909090 -0.689526 1.580392
v -9.409090 -2.189525 1.580392
v -9.409090 -0.689526 3.080392
v -10.708694 -1.438542 1.580391
v -10.708694 -0.689526 2.329408
v -10.514038 -1.406843 2.297709
v -9.409089 -1.989131 2.329408
v -10.158105 -1.989131 1.580391
v -10.126408 -1.794474 2.297709
v -10.158105 -0.689526 2.879997
v -9.409089 -1.438542 2.879997
v -10.126408 -1.406843 2.685340
v -10.909090 21.765020 1.580393
v -9.409090 21.765020 3.080393
v -9.409090 23.265020 1.580393
v -10.708694 21.765020 2.329409
v -10.708694 22.514036 1.580393
v -10.514038 22.482338 2.297711
v -9.409089 22.514036 2.879999
v -10.158105 21.765020 2.879999
v -10.126408 22.482338 2.685342
v -10.158105 23.064625 1.580393
v -9.409089 23.064625 2.329409
v -10.126408 22.869968 2.297711
vn -1.0000 -0.0000 -0.0000
vn -0.0000 -0.0000 1.0000
vn -0.0000 -1.0000 -0.0000
vn -0.0000 1.0000 -0.0000
vn 0.7669 -0.3178 0.5576
vn 0.5708 -0.5708 0.5902
vn 0.3178 -0.7669 0.5576
vn 0.4115 -0.2271 0.8827
vn 0.1513 -0.1513 0.9768
vn 0.2271 -0.4115 0.8827
vn 0.4258 -0.4258 0.7984
vn 0.7669 0.3178 0.5576
vn 0.2271 0.4115 0.8827
vn 0.1513 0.1513 0.9768
vn 0.4115 0.2271 0.8827
vn 0.3178 0.7669 0.5576
vn 0.5708 0.5708 0.5902
vn 0.4258 0.4258 0.7984
vn -0.3178 -0.7669 0.5576
vn -0.5708 -0.5708 0.5902
vn -0.7669 -0.3178 0.5576
vn -0.2271 -0.4115 0.8827
vn -0.1513 -0.1513 0.9768
vn -0.4115 -0.2271 0.8827
vn -0.4258 -0.4258 0.7984
vn -0.3178 0.7669 0.5576
vn -0.4115 0.2271 0.8827
vn -0.1513 0.1513 0.9768
vn -0.2271 0.4115 0.8827
vn -0.7669 0.3178 0.5576
vn -0.5708 0.5708 0.5902
vn -0.4258 0.4258 0.7984
vn 0.2566 0.9318 0.2566
vn 0.2178 0.6901 0.6901
vn 0.2566 0.2566 0.9318
vn 0.6901 0.2178 0.6901
vn 0.9318 0.2566 0.2566
vn 0.6901 0.6901 0.2178
vn 0.5774 0.5774 0.5774
vn 0.2566 -0.9318 0.2566
vn 0.6901 -0.6901 0.2178
vn 0.9318 -0.2566 0.2566
vn 0.6901 -0.2178 0.6901
vn 0.2566 -0.2566 0.9318
vn 0.2178 -0.6901 0.6901
vn 0.5774 -0.5774 0.5774
vn -0.9318 -0.2566 0.2566
vn -0.6901 -0.6901 0.2178
vn -0.2566 -0.9318 0.2566
vn -0.2178 -0.6901 0.6901
vn -0.2566 -0.2566 0.9318
vn -0.6901 -0.2178 0.6901
vn -0.5774 -0.5774 0.5774
vn -0.9318 0.2566 0.2566
vn -0.6901 0.2178 0.6901
vn -0.2566 0.2566 0.9318
vn -0.2178 0.6901 0.6901
vn -0.2566 0.9318 0.2566
vn -0.6901 0.6901 0.2178
vn -0.5774 0.5773 0.5774
vn 0.2879 -0.0000 0.9576
vn 0.7071 -0.0000 0.7071
vn 0.9576 -0.0000 0.2879
vn -0.0000 -0.9576 0.2879
vn -0.0000 -0.7071 0.7071
vn -0.0000 -0.2879 0.9576
vn -0.0000 0.2879 0.9576
vn -0.0000 0.7071 0.7071
vn -0.0000 0.9576 0.2879
vn -0.2739 0.9618 -0.0043
vn -0.7071 0.7071 -0.0086
vn -0.9618 0.2739 -0.0043
vn 0.9618 0.2739 -0.0043
vn 0.7071 0.7071 -0.0086
vn 0.2739 0.9618 -0.0043
vn -0.2739 -0.9618 -0.0043
vn -0.7071 -0.7071 -0.0086
vn -0.9618 -0.2739 -0.0043
vn -0.9576 -0.0000 0.2879
vn -0.7071 -0.0000 0.7071
vn -0.2879 -0.0000 0.9576
vn 0.9618 -0.2739 -0.0043
vn 0.7071 -0.7071 -0.0086
vn 0.2739 -0.9618 -0.0043
vn 0.9660 -0.0000 0.2585
vn 0.2585 -0.0000 0.9660
vn -0.0000 0.9660 0.2585
vn -0.0000 0.2585 0.9660
vn -0.0000 -0.2585 0.9660
vn -0.0000 -0.9660 0.2585
vn -0.2585 -0.0000 0.9660
vn -0.9660 -0.0000 0.2585
vn 1.0000 -0.0000 -0.0000
vt 0.227273 0.689773
vt 0.227273 0.128409
vt 1.000000 0.090909
vt 1.000000 0.727273
vt 0.946591 0.764773
vt 0.946591 0.053409
vt 0.871591 0.090909
vt 0.871591 0.090909
vt 0.264773 0.090909
vt 0.136364 0.727273
vt 0.136364 0.090909
vt 0.189773 0.053409
vt 0.189773 0.764773
vt 0.136364 0.000000
vt 1.000000 0.000000
vt 1.000000 0.818182
vt 0.136364 0.818182
vt 0.264773 0.689773
vt 0.264773 0.128409
vt 0.871591 0.128409
vt 0.871591 0.689773
vt 0.871591 0.727273
vt 0.264773 0.727273
vt 0.264773 0.727273
vt 0.871591 0.727273
vt 0.909091 0.128409
vt 0.909091 0.110003
vt 0.909091 0.097175
vt 0.909091 0.104575
vt 0.889997 0.090909
vt 0.902825 0.090909
vt 0.895425 0.090909
vt 0.922756 0.071734
vt 0.915386 0.084614
vt 0.928266 0.077244
vt 0.909091 0.689773
vt 0.909091 0.713607
vt 0.909091 0.721007
vt 0.909091 0.708179
vt 0.928266 0.740938
vt 0.915386 0.733567
vt 0.922756 0.746448
vt 0.895425 0.727273
vt 0.902825 0.727273
vt 0.889997 0.727273
vt 0.246367 0.090909
vt 0.233538 0.090909
vt 0.240938 0.090909
vt 0.227273 0.110003
vt 0.227273 0.097174
vt 0.227273 0.104575
vt 0.208097 0.077244
vt 0.220978 0.084614
vt 0.213607 0.071734
vt 0.240938 0.727273
vt 0.233538 0.727273
vt 0.246367 0.727273
vt 0.213607 0.746448
vt 0.220978 0.733567
vt 0.208097 0.740938
vt 0.227273 0.713607
vt 0.227273 0.721007
vt 0.227273 0.708179
vt 0.871591 0.727273
vt 0.889524 0.727273
vt 0.890316 0.727273
vt 0.871591 0.708498
vt 0.889524 0.707706
vt 0.890316 0.689773
vt 0.909091 0.689773
vt 0.909091 0.707706
vt 0.909091 0.708498
vt 0.890316 0.090909
vt 0.889524 0.090909
vt 0.871591 0.090909
vt 0.909091 0.109684
vt 0.909091 0.110476
vt 0.909091 0.128409
vt 0.890316 0.128409
vt 0.889524 0.110476
vt 0.871591 0.109684
vt 0.227273 0.109684
vt 0.227273 0.110476
vt 0.246047 0.090909
vt 0.246840 0.090909
vt 0.264773 0.090909
vt 0.264773 0.109684
vt 0.246840 0.110476
vt 0.246047 0.128409
vt 0.227273 0.689773
vt 0.227273 0.707706
vt 0.227273 0.708498
vt 0.246047 0.689773
vt 0.246840 0.707706
vt 0.264773 0.708498
vt 0.246840 0.727273
vt 0.246047 0.727273
s 0
usemtl Material.011
f 47/1/1 34/2/1 81/2/1 93/1/1
f 2/3/2 3/4/2 22/5/2 11/6/2
f 10/7/3 69/8/3 82/9/3 33/9/3
f 7/10/2 6/11/2 35/12/2 46/13/2
f 35/12/2 6/11/2 5/14/2 1/15/2 2/3/2 11/6/2
f 4/16/2 8/17/2 7/10/2 46/13/2 22/5/2 3/4/2
f 94/18/2 83/19/2 71/20/2 58/21/2
f 23/22/4 45/23/4 95/24/4 57/25/4
f 9/26/5 12/27/5 14/28/5 13/29/5
f 12/27/6 16/30/6 17/31/6 14/28/6
f 10/7/7 15/32/7 17/31/7 16/30/7
f 15/32/8 19/33/8 20/34/8 17/31/8
f 11/6/9 18/35/9 20/34/9 19/33/9
f 18/35/10 13/29/10 14/28/10 20/34/10
f 14/28/11 17/31/11 20/34/11
f 21/36/12 24/37/12 26/38/12 25/39/12
f 24/37/13 28/40/13 29/41/13 26/38/13
f 22/5/14 27/42/14 29/41/14 28/40/14
f 27/42/15 31/43/15 32/44/15 29/41/15
f 23/22/16 30/45/16 32/44/16 31/43/16
f 30/45/17 25/39/17 26/38/17 32/44/17
f 26/38/18 29/41/18 32/44/18
f 33/9/19 36/46/19 38/47/19 37/48/19
f 36/46/20 40/49/20 41/50/20 38/47/20
f 34/2/21 39/51/21 41/50/21 40/49/21
f 39/51/22 43/52/22 44/53/22 41/50/22
f 35/12/23 42/54/23 44/53/23 43/52/23
f 42/54/24 37/48/24 38/47/24 44/53/24
f 38/47/25 41/50/25 44/53/25
f 45/23/26 48/55/26 50/56/26 49/57/26
f 48/55/27 52/58/27 53/59/27 50/56/27
f 46/13/28 51/60/28 53/59/28 52/58/28
f 51/60/29 55/61/29 56/62/29 53/59/29
f 47/1/30 54/63/30 56/62/30 55/61/30
f 54/63/31 49/57/31 50/56/31 56/62/31
f 50/56/32 53/59/32 56/62/32
f 57/25/33 60/64/33 62/65/33 61/66/33
f 60/64/34 64/67/34 65/68/34 62/65/34
f 58/21/35 63/69/35 65/68/35 64/67/35
f 63/69/36 67/70/36 68/71/36 65/68/36
f 59/36/37 66/72/37 68/71/37 67/70/37
f 66/72/38 61/66/38 62/65/38 68/71/38
f 62/65/39 65/68/39 68/71/39
f 69/8/40 72/73/40 74/74/40 73/75/40
f 72/73/41 76/76/41 77/77/41 74/74/41
f 70/78/42 75/78/42 77/77/42 76/76/42
f 75/78/43 79/79/43 80/80/43 77/77/43
f 71/20/44 78/81/44 80/80/44 79/79/44
f 78/81/45 73/75/45 74/74/45 80/80/45
f 74/74/46 77/77/46 80/80/46
f 81/2/47 84/82/47 86/83/47 85/2/47
f 84/82/48 88/84/48 89/85/48 86/83/48
f 82/9/49 87/86/49 89/85/49 88/84/49
f 87/86/50 91/87/50 92/88/50 89/85/50
f 83/19/51 90/89/51 92/88/51 91/87/51
f 90/89/52 85/2/52 86/83/52 92/88/52
f 86/83/53 89/85/53 92/88/53
f 93/1/54 96/90/54 98/91/54 97/92/54
f 96/90/55 100/93/55 101/94/55 98/91/55
f 94/18/56 99/95/56 101/94/56 100/93/56
f 99/95/57 103/24/57 104/96/57 101/94/57
f 95/24/58 102/97/58 104/96/58 103/24/58
f 102/97/59 97/92/59 98/91/59 104/96/59
f 98/91/60 101/94/60 104/96/60
f 11/6/61 22/5/61 28/40/61 18/35/61
f 18/35/62 28/40/62 24/37/62 13/29/62
f 13/29/63 24/37/63 21/36/63 9/26/63
f 10/7/64 33/9/64 37/48/64 15/32/64
f 15/32/65 37/48/65 42/54/65 19/33/65
f 19/33/66 42/54/66 35/12/66 11/6/66
f 22/5/67 46/13/67 52/58/67 27/42/67
f 27/42/68 52/58/68 48/55/68 31/43/68
f 31/43/69 48/55/69 45/23/69 23/22/69
f 95/24/70 45/23/70 49/57/70 102/97/70
f 102/97/71 49/57/71 54/63/71 97/92/71
f 97/92/72 54/63/72 47/1/72 93/1/72
f 59/36/73 21/36/73 25/39/73 66/72/73
f 66/72/74 25/39/74 30/45/74 61/66/74
f 61/66/75 30/45/75 23/22/75 57/25/75
f 33/9/76 82/9/76 88/84/76 36/46/76
f 36/46/77 88/84/77 84/82/77 40/49/77
f 40/49/78 84/82/78 81/2/78 34/2/78
f 34/2/79 47/1/79 55/61/79 39/51/79
f 39/51/80 55/61/80 51/60/80 43/52/80
f 43/52/81 51/60/81 46/13/81 35/12/81
f 9/26/82 70/78/82 76/76/82 12/27/82
f 12/27/83 76/76/83 72/73/83 16/30/83
f 16/30/84 72/73/84 69/8/84 10/7/84
f 70/78/85 59/36/85 67/70/85 75/78/85
f 75/78/62 67/70/62 63/69/62 79/79/62
f 79/79/86 63/69/86 58/21/86 71/20/86
f 57/25/87 95/24/87 103/24/87 60/64/87
f 60/64/68 103/24/68 99/95/68 64/67/68
f 64/67/88 99/95/88 94/18/88 58/21/88
f 71/20/89 83/19/89 91/87/89 78/81/89
f 78/81/65 91/87/65 87/86/65 73/75/65
f 73/75/90 87/86/90 82/9/90 69/8/90
f 83/19/91 94/18/91 100/93/91 90/89/91
f 90/89/80 100/93/80 96/90/80 85/2/80
f 85/2/92 96/90/92 93/1/92 81/2/92
f 9/26/93 21/36/93 59/36/93 70/78/93
