# Blender v3.0.0 OBJ File: 'pixel-art-sonic-palm-tree.blend'
# www.blender.org
mtllib still-palm-tree.mtl
o Cylinder.002
v -0.157834 0.006872 -0.182223
v 0.061308 0.006872 -0.240770
v 0.221547 0.006872 -0.079819
v 0.162695 0.006872 0.139627
v -0.056045 0.006872 0.197772
v -0.216615 0.006872 0.037153
v -0.198569 0.006872 -0.222910
v 0.076056 0.006872 -0.296229
v 0.276918 0.006872 -0.094480
v 0.203235 0.006872 0.180509
v -0.070958 0.006872 0.253396
v -0.272231 0.006872 0.052058
v -0.199750 0.107610 -0.228337
v 0.074823 0.107610 -0.301604
v 0.275631 0.107610 -0.099801
v 0.201948 0.107610 0.175188
v -0.072142 0.107610 0.247972
v -0.273425 0.107610 0.046644
v -0.159022 0.107610 -0.187643
v -0.225087 3.971735 -0.492860
v 0.060098 0.107610 -0.246168
v -0.005711 3.971735 -0.551642
v 0.220294 0.107610 -0.085175
v 0.154884 3.971735 -0.391047
v 0.161432 0.107610 0.134282
v 0.096102 3.971735 -0.171671
v -0.057226 0.107610 0.192345
v -0.123275 3.971735 -0.112889
v -0.217804 0.107610 0.031734
v -0.283869 3.971735 -0.273484
v -0.265799 3.971735 -0.533571
v 0.009190 3.971735 -0.607254
v 0.210496 3.971735 -0.405949
v 0.136813 3.971735 -0.130960
v -0.138176 3.971735 -0.057277
v -0.339482 3.971735 -0.258583
v -0.265599 4.072473 -0.533571
v 0.009445 4.072473 -0.607254
v 0.210733 4.072473 -0.405949
v 0.137077 4.072473 -0.130960
v -0.137964 4.072473 -0.057277
v -0.339282 4.072473 -0.258583
v -0.224870 4.072473 -0.492860
v -0.079870 6.590127 -0.305465
v -0.005447 4.072473 -0.551642
v 0.139043 6.590127 -0.363783
v 0.155109 4.072473 -0.391047
v 0.298757 6.590127 -0.202308
v 0.096363 4.072473 -0.171671
v 0.239769 6.590127 0.017275
v -0.123037 4.072473 -0.112889
v 0.022091 6.590127 0.074358
v -0.283643 4.072473 -0.273484
v -0.138652 6.590127 -0.086088
v -0.120433 6.590127 -0.346325
v 0.153463 6.590127 -0.418914
v 0.353668 6.590127 -0.216508
v 0.279985 6.590127 0.058481
v 0.007123 6.590127 0.130037
v -0.194382 6.590127 -0.071070
v -0.118167 6.690865 -0.335675
v 0.155752 6.690865 -0.408288
v 0.355908 6.690865 -0.205833
v 0.282225 6.690865 0.069156
v 0.009400 6.690865 0.140675
v -0.192012 6.690865 -0.060524
v -0.077536 6.690865 -0.294885
v 0.141315 6.690865 -0.353141
v 0.300990 6.690865 -0.191627
v 0.242005 6.690865 0.027954
v 0.024357 6.690865 0.085007
v -0.136317 6.690865 -0.075508
v -0.076539 7.166589 -0.247327
v 0.142179 7.166589 -0.305450
v 0.301961 7.166589 -0.143923
v 0.242938 7.166589 0.075628
v 0.025138 7.166589 0.132779
v -0.135340 7.166589 -0.027931
v -0.337381 7.511859 -0.468173
v 0.220065 7.511859 -0.615499
v 0.628748 7.511859 -0.201746
v 0.479150 7.511859 0.360139
v -0.078368 7.511859 0.507523
v -0.487528 7.511859 0.094275
v -0.392112 8.696052 -0.416753
v 0.169542 8.696052 -0.567495
v 0.580724 8.696052 -0.155659
v 0.430219 8.696052 0.406920
v -0.131452 8.696052 0.557663
v -0.542600 8.696052 0.145827
v -0.170853 9.035616 -0.184912
v 0.074959 9.035616 -0.250795
v 0.254984 9.035616 -0.070799
v 0.189091 9.035616 0.175080
v -0.056757 9.035616 0.240963
v -0.236777 9.035616 0.060967
vt 0.333333 1.000000
vt 0.500000 1.000000
vt 0.500000 1.000000
vt 0.333333 1.000000
vt 0.666667 1.000000
vt 0.833333 1.000000
vt 0.833333 1.000000
vt 0.666667 1.000000
vt 0.166667 1.000000
vt 0.166667 1.000000
vt 1.000000 1.000000
vt 1.000000 1.000000
vt -0.000000 1.000000
vt -0.000000 1.000000
vt 0.457846 0.370000
vt 0.250000 0.490000
vt 0.042154 0.370000
vt 0.042154 0.130000
vt 0.250000 0.010000
vt 0.457846 0.130000
vt 1.000000 0.500000
vt 1.000000 1.000000
vt 0.833333 1.000000
vt 0.833333 0.500000
vt 0.666667 1.000000
vt 0.666667 0.500000
vt 0.500000 1.000000
vt 0.500000 0.500000
vt 0.333333 1.000000
vt 0.333333 0.500000
vt 0.500000 1.000000
vt 0.333333 1.000000
vt 0.166667 1.000000
vt 0.166667 0.500000
vt -0.000000 1.000000
vt -0.000000 0.500000
vt 0.750000 0.490000
vt 0.957846 0.370000
vt 0.957846 0.130000
vt 0.750000 0.010000
vt 0.542154 0.130000
vt 0.542154 0.370000
vt 0.833333 1.000000
vt 0.666667 1.000000
vt 0.166667 1.000000
vt 1.000000 1.000000
vt -0.000000 1.000000
vt 0.457846 0.370000
vt 0.250000 0.490000
vt 0.042154 0.370000
vt 0.042154 0.130000
vt 0.250000 0.010000
vt 0.457846 0.130000
vt 1.000000 0.500000
vt 1.000000 1.000000
vt 0.833333 1.000000
vt 0.833333 0.500000
vt 0.666667 1.000000
vt 0.666667 0.500000
vt 0.500000 1.000000
vt 0.500000 0.500000
vt 0.333333 1.000000
vt 0.333333 0.500000
vt 0.500000 1.000000
vt 0.333333 1.000000
vt 0.166667 1.000000
vt 0.166667 0.500000
vt -0.000000 1.000000
vt -0.000000 0.500000
vt 0.750000 0.490000
vt 0.957846 0.370000
vt 0.957846 0.130000
vt 0.750000 0.010000
vt 0.542154 0.130000
vt 0.542154 0.370000
vt 0.833333 1.000000
vt 0.666667 1.000000
vt 0.166667 1.000000
vt 1.000000 1.000000
vt -0.000000 1.000000
vt 0.457846 0.370000
vt 0.250000 0.490000
vt 0.042154 0.370000
vt 0.042154 0.130000
vt 0.250000 0.010000
vt 0.457846 0.130000
vt 0.750000 0.490000
vt 0.542154 0.370000
vt 0.542154 0.130000
vt 0.750000 0.010000
vt 0.957846 0.130000
vt 0.957846 0.370000
vt 0.542154 0.130000
vt 0.542154 0.370000
vt 0.542154 0.370000
vt 0.542154 0.130000
vt 0.750000 0.490000
vt 0.750000 0.010000
vt 0.957846 0.130000
vt 0.957846 0.370000
vt 0.750000 0.490000
vt 0.750000 0.490000
vt 0.542154 0.370000
vt 0.750000 0.010000
vt 0.957846 0.130000
vt 0.957846 0.370000
vt 0.542154 0.130000
vt 0.542154 0.370000
vt 0.542154 0.130000
vt 0.750000 0.010000
vt 0.957846 0.130000
vt 0.957846 0.370000
vt 0.750000 0.490000
vt 0.957846 0.370000
vt 0.957846 0.130000
vt 0.750000 0.010000
vt 0.333333 1.000000
vt 0.166667 1.000000
vt 0.666667 1.000000
vt 0.500000 1.000000
vt 1.000000 1.000000
vt 0.833333 1.000000
vt -0.000000 1.000000
vt 0.333333 1.000000
vt 0.166667 1.000000
vt 0.666667 1.000000
vt 0.500000 1.000000
vt 1.000000 1.000000
vt 0.833333 1.000000
vt -0.000000 1.000000
vt 0.333333 1.000000
vt 0.166667 1.000000
vt 0.666667 1.000000
vt 0.500000 1.000000
vt 1.000000 1.000000
vt 0.833333 1.000000
vt -0.000000 1.000000
vn 0.0000 -1.0000 -0.0000
vn 0.0000 1.0000 -0.0000
vn -0.2576 -0.0805 -0.9629
vn 0.7073 -0.0438 -0.7056
vn 0.9652 0.0368 0.2588
vn 0.2569 0.0805 0.9631
vn -0.7065 0.0437 0.7064
vn -0.9653 -0.0369 -0.2586
vn -0.2571 0.0865 -0.9625
vn 0.7090 0.0122 -0.7051
vn 0.9632 -0.0743 0.2583
vn 0.2553 -0.0866 0.9630
vn -0.7067 -0.0119 0.7074
vn -0.9632 0.0747 -0.2581
vn 0.5081 0.6982 -0.5043
vn 0.9655 -0.0279 0.2587
vn -0.2525 0.0970 -0.9627
vn -0.7093 -0.0690 0.7015
vn 0.7055 0.0694 -0.7053
vn -0.9654 0.0279 -0.2594
vn 0.2558 -0.0968 0.9619
vn 0.9656 0.0335 0.2580
vn -0.7281 0.6574 -0.1944
vn 0.1987 0.6299 0.7508
vn 0.7200 0.6667 0.1924
vn -0.1829 0.6970 -0.6933
vn -0.5578 0.6205 0.5512
vn 0.5486 -0.6314 -0.5480
vn -0.2573 0.0284 -0.9659
vn -0.7084 -0.0574 0.7035
vn 0.7078 0.0625 -0.7037
vn -0.9658 -0.0294 -0.2577
vn 0.2573 -0.0291 0.9659
vn -0.7316 -0.6530 -0.1958
vn 0.1995 -0.6380 0.7438
vn 0.7522 -0.6274 0.2014
vn -0.1980 -0.6448 -0.7382
vn -0.5375 -0.6502 0.5370
vn -0.7069 0.0297 0.7067
vn 0.9656 0.0260 0.2587
vn -0.2575 -0.0548 -0.9647
vn -0.9656 -0.0253 -0.2587
vn 0.2564 0.0546 0.9650
vn 0.7085 -0.0286 -0.7052
vn -0.7071 0.0014 0.7071
vn 0.9659 -0.0024 0.2588
vn -0.2588 0.0006 -0.9659
vn -0.9659 0.0019 -0.2588
vn 0.2588 -0.0006 0.9659
vn 0.7071 -0.0017 -0.7071
vn -0.7054 -0.0580 0.7065
vn 0.9648 -0.0488 0.2585
vn -0.2547 0.1072 -0.9610
vn -0.9646 0.0494 -0.2590
vn 0.2522 -0.1074 0.9617
vn 0.7098 0.0583 -0.7020
usemtl Wood
s off
f 5/1/1 4/2/1 10/3/1 11/4/1
f 3/5/1 2/6/1 8/7/1 9/8/1
f 6/9/1 5/1/1 11/4/1 12/10/1
f 2/6/1 1/11/1 7/12/1 8/7/1
f 4/2/1 3/5/1 9/8/1 10/3/1
f 1/13/1 6/9/1 12/10/1 7/14/1
f 14/15/2 13/16/2 18/17/2 17/18/2 16/19/2 15/20/2
f 19/21/3 20/22/3 22/23/3 21/24/3
f 21/24/4 22/23/4 24/25/4 23/26/4
f 23/26/5 24/25/5 26/27/5 25/28/5
f 25/28/6 26/27/6 28/29/6 27/30/6
f 28/29/1 26/27/1 34/31/1 35/32/1
f 27/30/7 28/29/7 30/33/7 29/34/7
f 29/34/8 30/33/8 20/35/8 19/36/8
f 19/37/1 21/38/1 23/39/1 25/40/1 27/41/1 29/42/1
f 24/25/1 22/23/1 32/43/1 33/44/1
f 30/33/1 28/29/1 35/32/1 36/45/1
f 22/23/1 20/22/1 31/46/1 32/43/1
f 26/27/1 24/25/1 33/44/1 34/31/1
f 20/35/1 30/33/1 36/45/1 31/47/1
f 38/48/2 37/49/2 42/50/2 41/51/2 40/52/2 39/53/2
f 43/54/9 44/55/9 46/56/9 45/57/9
f 45/57/10 46/56/10 48/58/10 47/59/10
f 47/59/11 48/58/11 50/60/11 49/61/11
f 49/61/12 50/60/12 52/62/12 51/63/12
f 52/62/1 50/60/1 58/64/1 59/65/1
f 51/63/13 52/62/13 54/66/13 53/67/13
f 53/67/14 54/66/14 44/68/14 43/69/14
f 43/70/1 45/71/1 47/72/1 49/73/1 51/74/1 53/75/1
f 48/58/1 46/56/1 56/76/1 57/77/1
f 54/66/1 52/62/1 59/65/1 60/78/1
f 46/56/1 44/55/1 55/79/1 56/76/1
f 50/60/1 48/58/1 57/77/1 58/64/1
f 44/68/1 54/66/1 60/78/1 55/80/1
f 62/81/2 61/82/2 66/83/2 65/84/2 64/85/2 63/86/2
f 67/87/2 72/88/2 71/89/2 70/90/2 69/91/2 68/92/2
f 77/93/15 78/94/15 84/95/15 83/96/15
f 72/88/16 67/87/16 73/97/16 78/94/16
f 70/90/17 71/89/17 77/93/17 76/98/17
f 68/92/18 69/91/18 75/99/18 74/100/18
f 71/89/19 72/88/19 78/94/19 77/93/19
f 69/91/20 70/90/20 76/98/20 75/99/20
f 67/87/21 68/92/21 74/100/21 73/97/21
f 84/95/22 79/101/22 85/102/22 90/103/22
f 75/99/23 76/98/23 82/104/23 81/105/23
f 73/97/24 74/100/24 80/106/24 79/101/24
f 78/94/25 73/97/25 79/101/25 84/95/25
f 76/98/26 77/93/26 83/96/26 82/104/26
f 74/100/27 75/99/27 81/105/27 80/106/27
f 89/107/28 90/103/28 96/108/28 95/109/28
f 82/104/29 83/96/29 89/107/29 88/110/29
f 80/106/30 81/105/30 87/111/30 86/112/30
f 83/96/31 84/95/31 90/103/31 89/107/31
f 81/105/32 82/104/32 88/110/32 87/111/32
f 79/101/33 80/106/33 86/112/33 85/102/33
f 91/113/1 92/114/1 93/115/1 94/116/1 95/109/1 96/108/1
f 87/111/34 88/110/34 94/116/34 93/115/34
f 85/102/35 86/112/35 92/114/35 91/113/35
f 90/103/36 85/102/36 91/113/36 96/108/36
f 88/110/37 89/107/37 95/109/37 94/116/37
f 86/112/38 87/111/38 93/115/38 92/114/38
usemtl GreenFruit
f 12/10/39 11/4/39 17/117/39 18/118/39
f 10/3/40 9/8/40 15/119/40 16/120/40
f 8/7/41 7/12/41 13/121/41 14/122/41
f 7/14/42 12/10/42 18/118/42 13/123/42
f 11/4/43 10/3/43 16/120/43 17/117/43
f 9/8/44 8/7/44 14/122/44 15/119/44
f 36/45/45 35/32/45 41/124/45 42/125/45
f 34/31/46 33/44/46 39/126/46 40/127/46
f 32/43/47 31/46/47 37/128/47 38/129/47
f 31/47/48 36/45/48 42/125/48 37/130/48
f 35/32/49 34/31/49 40/127/49 41/124/49
f 33/44/50 32/43/50 38/129/50 39/126/50
f 60/78/51 59/65/51 65/131/51 66/132/51
f 58/64/52 57/77/52 63/133/52 64/134/52
f 56/76/53 55/79/53 61/135/53 62/136/53
f 55/80/54 60/78/54 66/132/54 61/137/54
f 59/65/55 58/64/55 64/134/55 65/131/55
f 57/77/56 56/76/56 62/136/56 63/133/56
o Plane.025
v -0.173532 9.035616 -0.184912
v -1.142555 10.270414 -1.754231
v -0.431328 10.283252 -0.880185
v -0.974414 10.240297 -0.236044
v -1.880746 10.050732 -0.763888
v -1.437313 8.834517 -2.526540
v -1.973895 8.471213 -1.449828
v -0.760417 7.788123 -1.931667
vt 1.000000 0.000000
vt 1.000000 1.000000
vt 0.000000 1.000000
vt 1.000000 1.000000
vt 0.000000 1.000000
vt 1.000000 1.000000
vt 0.000000 1.000000
vt 0.000000 1.000000
vn -0.6614 -0.4647 -0.5887
vn 0.1554 -0.9872 -0.0368
vn 0.8446 -0.3173 0.4314
vn 0.5670 0.6526 0.5027
usemtl Leaves
s off
f 97/138/57 100/139/57 99/140/57
f 99/140/58 100/139/58 101/141/58 98/142/58
f 98/142/59 101/141/59 103/143/59 102/144/59
f 102/144/60 103/143/60 104/145/60
o Plane.026
v 0.054999 9.035616 -0.246147
v 1.148359 9.855539 -1.868583
v 0.670756 10.147583 -0.911767
v -0.144688 10.150721 -1.133320
v -0.081319 9.851886 -2.195439
v 1.317816 8.267053 -2.501005
v 0.088464 8.265649 -2.829077
v 0.507477 7.257745 -1.934818
vt 1.000000 0.000000
vt 1.000000 1.000000
vt 0.000000 1.000000
vt 1.000000 1.000000
vt 0.000000 1.000000
vt 1.000000 1.000000
vt 0.000000 1.000000
vt 0.000000 1.000000
vn 0.2105 -0.5853 -0.7830
vn -0.0702 -0.9623 0.2628
vn -0.2372 -0.3816 0.8934
vn -0.2070 0.5998 0.7730
usemtl Leaves
s off
f 105/146/61 108/147/61 107/148/61
f 107/148/62 108/147/62 109/149/62 106/150/62
f 106/150/63 109/149/63 111/151/63 110/152/63
f 110/152/64 111/151/64 112/153/64
o Plane.027
v 0.271721 8.978887 -0.092094
v 2.511919 9.310639 -0.033724
v 1.481426 9.677772 0.021171
v 1.265105 9.680694 -0.795675
v 2.178792 9.307736 -1.261722
v 3.095231 7.776647 -0.190022
v 2.764680 7.775436 -1.418710
v 2.205401 6.808820 -0.610223
v 0.239644 9.035616 -0.083499
v 2.547751 9.349900 -0.043325
v 1.481774 9.734370 0.021078
v 1.265789 9.737132 -0.795858
v 2.214890 9.347107 -1.271394
v 3.147866 7.772522 -0.204126
v 2.817364 7.771284 -1.432827
v 2.256494 6.769796 -0.623913
vt 1.000000 0.000000
vt 1.000000 1.000000
vt 0.000000 1.000000
vt 1.000000 1.000000
vt 0.000000 1.000000
vt 1.000000 1.000000
vt 0.000000 1.000000
vt 0.000000 1.000000
vt 1.000000 0.000000
vt 0.000000 1.000000
vt 1.000000 1.000000
vt 0.000000 1.000000
vt 1.000000 1.000000
vt 0.000000 1.000000
vt 1.000000 1.000000
vt 0.000000 1.000000
vn 0.5051 -0.8521 -0.1368
vn -0.3333 -0.9386 0.0895
vn -0.8978 -0.3672 0.2432
vn -0.7632 0.6128 0.2047
vn -0.4944 0.8589 0.1336
vn 0.3361 0.9375 -0.0902
vn 0.8978 0.3672 -0.2430
vn 0.7726 -0.6001 -0.2072
vn -0.0396 -0.0858 0.9955
vn -0.4266 0.0710 -0.9016
vn -0.5318 -0.0849 -0.8426
vn 0.0816 0.0698 0.9942
vn -0.2588 0.0000 -0.9659
vn 0.2588 0.0000 0.9659
vn 0.0591 -0.4362 0.8979
vn -0.3979 -0.4366 -0.8069
usemtl Leaves
s off
f 113/154/65 116/155/65 115/156/65
f 115/156/66 116/155/66 117/157/66 114/158/66
f 114/158/67 117/157/67 119/159/67 118/160/67
f 118/160/68 119/159/68 120/161/68
f 121/162/69 123/163/69 124/164/69
f 123/163/70 122/165/70 125/166/70 124/164/70
f 122/165/71 126/167/71 127/168/71 125/166/71
f 126/167/72 128/169/72 127/168/72
f 113/154/73 115/156/73 123/163/73 121/162/73
f 117/157/74 116/155/74 124/164/74 125/166/74
f 116/155/75 113/154/75 121/162/75 124/164/75
f 115/156/76 114/158/76 122/165/76 123/163/76
f 119/159/77 117/157/77 125/166/77 127/168/77
f 114/158/78 118/160/78 126/167/78 122/165/78
f 118/160/79 120/161/79 128/169/79 126/167/79
f 120/161/80 119/159/80 127/168/80 128/169/80
o Plane.028
v 0.191109 9.035617 0.157732
v 1.112795 10.555658 1.462483
v 0.512284 10.392585 0.576406
v 1.104484 10.168170 0.016941
v 1.998463 10.207187 0.618027
v 1.318762 9.096481 2.276069
v 2.204285 8.748636 1.431204
v 1.154026 7.789129 1.679399
vt 1.000000 0.000000
vt 1.000000 1.000000
vt 0.000000 1.000000
vt 1.000000 1.000000
vt 0.000000 1.000000
vt 1.000000 1.000000
vt 0.000000 1.000000
vt 0.000000 1.000000
vn 0.5638 -0.3624 0.7422
vn -0.1267 -0.9579 0.2575
vn -0.7077 -0.4176 -0.5699
vn -0.5432 0.4043 -0.7358
usemtl Leaves
s off
f 129/170/81 132/171/81 131/172/81
f 131/172/82 132/171/82 133/173/82 130/174/82
f 130/174/83 133/173/83 135/175/83 134/176/83
f 134/176/84 135/175/84 136/177/84
o Plane.029
v -0.042070 9.035616 0.236315
v -1.255353 10.017302 2.073400
v -0.751548 10.100092 0.985074
v 0.057687 10.050643 1.190195
v -0.027120 9.858585 2.192369
v -1.454587 8.415018 2.998652
v -0.250004 8.451388 2.776651
v -0.797998 7.315511 2.292179
vt 1.000000 0.000000
vt 1.000000 1.000000
vt 0.000000 1.000000
vt 1.000000 1.000000
vt 0.000000 1.000000
vt 1.000000 1.000000
vt 0.000000 1.000000
vt 0.000000 1.000000
vn -0.2229 -0.6559 0.7212
vn -0.0766 -0.9855 -0.1512
vn -0.0601 -0.4408 -0.8956
vn -0.1746 0.4564 -0.8725
usemtl Leaves
s off
f 137/178/85 140/179/85 139/180/85
f 139/180/86 140/179/86 141/181/86 138/182/86
f 138/182/87 141/181/87 143/183/87 142/184/87
f 142/184/88 143/183/88 144/185/88
o Plane.030
v -0.226715 9.035616 0.073667
v -1.877778 10.707674 -0.142563
v -0.807243 10.316212 -0.208186
v -0.589028 10.320580 0.608153
v -1.547013 10.703541 1.086068
v -3.254370 9.818853 0.226293
v -2.924865 9.816916 1.455261
v -3.016747 8.557179 0.821251
vt 1.000000 0.000000
vt 1.000000 1.000000
vt 0.000000 1.000000
vt 1.000000 1.000000
vt 0.000000 1.000000
vt 1.000000 1.000000
vt 0.000000 1.000000
vt 0.000000 1.000000
vn -0.9025 -0.3556 0.2431
vn -0.3341 -0.9382 0.0898
vn 0.5099 -0.8489 -0.1391
vn 0.9642 0.0597 -0.2584
usemtl Leaves
s off
f 145/186/89 148/187/89 147/188/89
f 147/188/90 148/187/90 149/189/90 146/190/90
f 146/190/91 149/189/91 151/191/91 150/192/91
f 150/192/92 151/191/92 152/193/92
o Plane.031
v -0.018234 9.025411 -0.017970
v -0.248841 11.417669 -0.200914
v 0.266060 10.427605 -0.054456
v 0.034965 10.244418 0.737430
v -0.601422 11.132957 0.988026
v -1.863284 11.676878 -0.616068
v -2.215458 11.394101 0.573449
v -2.913526 10.745094 -0.466011
vt 1.000000 0.000000
vt 1.000000 1.000000
vt 0.000000 1.000000
vt 1.000000 1.000000
vt 0.000000 1.000000
vt 1.000000 1.000000
vt 0.000000 1.000000
vt 0.000000 1.000000
vn -0.9538 0.1873 -0.2350
vn -0.8072 -0.4753 -0.3501
vn -0.0893 -0.9625 -0.2561
vn 0.6651 -0.7465 0.0194
usemtl Leaves
s off
f 153/194/93 156/195/93 155/196/93
f 155/196/94 156/195/94 157/197/94 154/198/94
f 154/198/95 157/197/95 159/199/95 158/200/95
f 158/200/96 159/199/96 160/201/96
o Plane.032
v -0.054666 9.034905 -0.025165
v 1.220693 11.014766 0.487825
v 0.338438 10.398869 0.157529
v 0.583719 10.174565 -0.619369
v 1.589391 10.666835 -0.679205
v 2.681320 10.450760 1.115863
v 3.050650 10.104754 -0.051534
v 3.191784 9.142399 0.969709
vt 1.000000 0.000000
vt 1.000000 1.000000
vt 0.000000 1.000000
vt 1.000000 1.000000
vt 0.000000 1.000000
vt 1.000000 1.000000
vt 0.000000 1.000000
vt 0.000000 1.000000
vn 0.8803 -0.3026 0.3653
vn 0.4281 -0.8213 0.3770
vn -0.4077 -0.9024 0.1394
vn -0.9214 -0.3381 -0.1913
usemtl Leaves
s off
f 161/202/97 164/203/97 163/204/97
f 163/204/98 164/203/98 165/205/98 162/206/98
f 162/206/99 165/205/99 167/207/99 166/208/99
f 166/208/100 167/207/100 168/209/100
